<?xml version="1.0" encoding="UTF-8"?>
<svg width="1192px" height="746px" viewBox="0 0 1192 746" version="1.1" xmlns="http://www.w3.org/2000/svg" xmlns:xlink="http://www.w3.org/1999/xlink">
    <!-- Generator: Sketch 63.1 (92452) - https://sketch.com -->
    <title>prompts</title>
    <desc>Created with Sketch.</desc>
    <g id="prompts" stroke="none" stroke-width="1" fill="none" fill-rule="evenodd">
        <rect id="Rectangle" fill="#E0E5E7" x="-4" y="640" width="1196" height="106"></rect>
        <polygon id="Rectangle" fill="#EFF2F3" opacity="0.5" points="267 642 1194.5 642 1194.5 644 267 644"></polygon>
        <rect id="Rectangle" fill="#EFF2F3" opacity="0.400000006" x="267" y="649" width="941" height="7"></rect>
        <rect id="Rectangle" fill="#EFF2F3" opacity="0.300000012" x="267" y="663" width="941" height="14"></rect>
        <rect id="Rectangle" fill="#EFF2F3" opacity="0.200000003" x="267" y="692" width="941" height="19"></rect>
        <path d="M-21.1126648,620.230409 C-3.47789908,632.770688 -3.0138263,598.911936 21.1179583,620.230409 C45.249743,641.548882 43.8575246,645.310966 61.4922903,645.310966 C79.127056,645.310966 129.246916,641.548882 136.672081,641.548882 C144.097245,641.548882 110.219932,634.024715 150.594264,645.310966 C177.510486,652.835133 191.979064,651.064811 194,640 L284,640.5 C266.333333,642.833333 274.166667,650.333333 307.5,663 C357.5,682 356.5,678 371.5,697.5 C398.085653,732.061349 565.418528,743.941415 565.003082,749 C561.927611,786.134733 229.010287,782 226.238128,782 C222.061473,782 11.3724299,758.173471 8.58799324,750.649304 C7.47794547,747.649708 -89.9930984,762.774552 -97.7927618,736.597015 C-109.557724,697.110986 -31.7171279,612.689457 -21.1126648,620.230409 Z" id="Path-9" fill="#FFFFFF"></path>
        <path d="M-37.1126648,620.230409 C-19.4778991,632.770688 -19.0138263,598.911936 5.11795834,620.230409 C29.249743,641.548882 27.8575246,645.310966 45.4922903,645.310966 C63.127056,645.310966 113.246916,641.548882 120.672081,641.548882 C128.097245,641.548882 94.2199324,634.024715 134.594264,645.310966 C161.510486,652.835133 175.979064,651.064811 178,640 L284,640.5 C255.666667,642.833333 258.166667,650.333333 291.5,663 C341.5,682 332.5,678 347.5,697.5 C374.085653,732.061349 509.418528,743.941415 509.001933,749 C505.927611,786.134733 213.010287,782 210.238128,782 C206.061473,782 -4.62757007,758.173471 -7.41200676,750.649304 C-8.52205453,747.649708 -105.993098,762.774552 -113.792762,736.597015 C-125.557724,697.110986 -47.7171279,612.689457 -37.1126648,620.230409 Z" id="Path-9" fill="#FCEBC1"></path>
        <path d="M93,531 C114.36982,536.009081 128.703153,539.009081 136,540 C147.229984,541.525043 154.771345,538.931282 159,540 C166.754145,541.959724 169.336489,544.816774 170.27907,546.659091 C173.976744,553.886364 176.44186,557.5 176.44186,569.545455 C176.44186,581.590909 183.837209,593.636364 183.837209,606.886364 C183.837209,620.136364 190,637 190,637 C190,637 172.131783,637 136.395349,637 L93,531 Z" id="Path-3" fill="#E0E5E7"></path>
        <path d="M-100,612.316358 C-88.7905602,607.845659 -80.3597426,605.748381 -74.7075472,606.024524 C-70.8150683,606.214695 -59.2680121,608.347241 -55.4371069,608.541258 C-50.5745064,608.787526 -45.7373667,609.550209 -40.9842767,609.799625 C-22.3999334,610.774826 -4.2650266,608.759084 13,608.500428 C15.0780573,608.469295 18.4923074,610.02376 20.5,610.000428 C23.4820256,609.965772 25.2703717,610.993033 27.5,611.000428 C29.049965,611.005569 30.969317,609.982289 33,610.000428 C35.3233922,610.021181 38.7197025,612.497403 41,612.500428 C46.4292899,612.507629 50.4563412,610.368762 55.5,610.000428 C57.693099,609.840267 60.8741105,611.191656 63.1181121,611.235647 C64.4793555,611.262332 66.4933398,609.991506 69.5,608.500428 C71.691957,607.413381 75.0240413,605.971526 76,606.000428 C82.47622,606.192214 82.9204027,611.886182 89.091195,612.316358 C105.11978,613.433739 120.143082,614.682936 134.184327,616.003147 C136.271653,616.199405 142.449713,617.150628 144.493711,617.349825 C162.718817,619.125948 179.356156,622.406238 194,624.000428 C195.269668,624.138649 197.467925,626.077452 198.691824,626.158393 C199.241807,626.194766 198.364323,624.832615 198.495128,623.507302 C198.619345,622.248747 199.751036,621.023412 200.263372,621.060491 C201.146924,621.124437 204.630734,620.431982 205.5,620.500428 C209.465177,620.812644 210.674859,621.93404 214.349057,622.383293 C215.25989,622.494662 215.723734,622.902117 216.5,624.000428 C217.148304,624.917689 218.107776,626.556441 218.845086,626.639549 C221.423335,626.930166 223.937895,627.191292 226.393082,627.41676 C227.811653,627.547032 229.803726,624.869895 231.210692,624.900026 C235.508376,624.992063 241.852337,623.091097 245.663522,623.641659 C249.023159,624.126991 249.903907,627.048859 252.889937,627.41676 C258.526961,628.111282 264.071724,630.628935 268.54717,631.19186 C271.810526,631.602327 273.02814,633.437985 275.773585,633.708594 C278.985325,637.064239 281.39413,639.161517 283,640.000428 L-87.9559748,640.000428 L-100,612.316358 Z" id="Path-5" fill="#E0E5E7"></path>
        <path d="M184.56757,673.534247 C165.330361,680.438356 190.653488,687 163,687 C153.224393,687 204.934596,700.930007 194.5,704 C184.548381,706.927895 144.237861,722.147152 101,725 C61.3256627,727.617726 18.9692278,718 0,718 C-61.3186047,718 -152.3,721 -175.144186,721 C-190.373643,721 -199.992248,706.616438 -204,677.849315 L-185.965116,658 C65.6631482,666.702931 189.174044,671.881013 184.56757,673.534247 Z" id="Path-8" fill="#F3D9A4"></path>
        <path d="M-61,423 C-52.9670529,423 -43.9778026,425.814649 -34.0322491,431.443946 C-19.1139188,439.887892 -11.0809717,439.887892 -3.04802463,439.887892 C4.98492245,439.887892 24.4935082,472.457399 34.821583,472.457399 C45.1496579,472.457399 42.8545301,484.520179 49.7399133,484.520179 C56.6252965,484.520179 96.790032,495.376682 103.101633,505.026906 C109.413235,514.67713 122.036437,568.959641 122.036437,597.910314 C122.036437,612.97402 122.813155,622.485813 123.558302,630.184125 C124.24524,637.281064 149.004188,642.836786 149.004188,649.780269 C149.004188,653.98005 151.722387,654.036654 152.44688,657.017937 C153.073707,659.597328 153.83875,663.618255 154.742007,669.080717 C155.452727,670.337194 154.695027,670.799034 152.468908,670.466238 C151.734369,670.466238 150.125973,671.465512 149.368242,671.464625 C147.458715,671.462389 144.914763,670.491164 142.451372,670.466238 C140.940662,670.450952 138.65526,671.490828 136.488554,671.464625 C133.547297,671.429056 128.44194,670.619058 121.939276,670.466238 C119.559051,670.4103 115.431735,670.5452 111.444715,670.466238 C108.628923,670.410472 104.010572,670.578911 98.5650271,670.466238 C94.5996531,670.384191 87.7880448,671.698755 78.7684692,671.464625 C74.6960045,671.358912 68.066734,669.682681 58.9719113,668.968657 C56.2320193,668.753552 51.6246015,668.790905 45.1496579,669.080717 C45.6134833,670.247444 45.9960046,671.051629 46.2972217,671.493274 C46.9389762,672.434214 48.2630557,674.498391 48.4773504,674.95898 C48.8591016,675.779488 47.6269534,674.60467 46.3307357,674.95898 C43.6353655,675.695737 37.7778191,676.281668 34.821583,677.524664 C23.1921141,680.564264 16.382734,675.050724 -5.34315236,677.524664 C-7.24748766,677.741512 -4.43861532,678.590036 -1.98079908,680.503113 C-1.24078947,681.07911 -0.853362604,682.003164 0.394666979,682.349776 C1.64269656,682.696388 2.44218051,685.116501 2.46094633,685.828227 C2.48165781,686.613747 0.717231892,685.895285 0.394666979,685.96861 C-4.10430667,686.99131 -15.2862952,686.541351 -23.1303923,687.174888 C-30.1210386,687.739495 -42.7442412,689.347866 -61,692 L-61,423 Z" id="Path-2" fill="#E0E5E7"></path>
        <path d="M231.317753,667.492415 C229.438994,669.355644 236.378705,668.946289 239.370832,668.989886 C239.977469,668.998725 241.899125,668.989886 242.894055,668.989886 C248.796297,668.989886 246.403823,668.359451 249.342306,668.359451 C250.061191,668.359451 251.800561,668.299529 251.953769,667.991572 C252.426807,667.040737 249.170531,664.953513 246.719759,664.953513 C243.475229,664.953513 240.342239,662.317164 237.437272,663.169749 C234.532305,664.022334 232.324388,666.4941 231.317753,667.492415 Z" id="Path-12" fill="#052D46"></path>
        <path d="M236.664043,718.310193 C179.964702,751.078551 149.947404,767.46273 146.612149,767.46273 C143.667424,767.46273 115.824743,772.865305 -6.97635941,749.406696 C-17.833658,747.332634 -31.5082048,741.982698 -48,733.356888 L40.5510291,718.310193 L134.605229,711.288402 C141.537428,710.688871 146.540311,710.020129 149.613878,709.282176 C187.662121,700.146921 186,702.5 194,702.5 C202,702.5 218.747236,699.077892 219,699 C225.514529,696.992484 243.595637,694.667187 247,695 C251.989251,695.487753 239.420987,700.404826 243,701 C243.248158,701.041268 250.215959,700.007814 250.5,700 C256.017484,699.848211 274.348061,696.076325 279.5,696 C280.659449,695.982823 302.97255,693.435482 296.5,695 C294.092606,695.581905 289.764214,697.538355 284,699 C267.821208,703.102492 242.841932,709.173075 236.664043,715.300854 C236.368294,715.594203 236.368294,716.597316 236.664043,718.310193 Z" id="Path-35" fill="#F3D9A4"></path>
        <path d="M206.989747,647.55417 C213.004739,650.841916 220.113365,665.636772 232.690165,679.883671 L238.697599,691.677811 C240.884869,692.408421 243.254411,692.773726 245.806226,692.773726 C249.633947,692.773726 253.461669,692.773726 252.368034,694.417599 C251.2744,696.061472 241.825472,698.702608 239.244417,699.349218 C237.057147,699.897175 236.05864,700.84963 234.32306,700.99309 C232.317717,701.158849 232.175222,698.292816 231.588973,697.705345 C230.495338,696.609429 213.551556,685.911204 213.551556,681.527543 C213.551556,678.916777 174.937835,674.535 171.446616,658.513323 C171.029834,656.600651 200.974756,644.266425 206.989747,647.55417 Z" id="Path-49" fill="#C8AB8B"></path>
        <ellipse id="Oval" stroke="#EDC001" cx="140" cy="535.5" rx="2.5" ry="4"></ellipse>
        <g id="Group-3" transform="translate(47.000000, 556.000000)">
            <polygon id="Path-20" fill="#B19763" points="8.6 169.166667 25.1 61.6666667 28.6 63.1666667 12.1 169.166667"></polygon>
            <path d="M1.1,4.66666667 L52.1,148.166667 L58.6,148.166667 L8.1,0.166666667 C5.76666667,-0.166666667 3.93333333,4.21662705e-13 2.6,0.666666667 C1.26666667,1.33333333 0.766666667,2.66666667 1.1,4.66666667 Z" id="Path-16" fill="#8A7140"></path>
            <path d="M7.1,4.66666667 L58.1,148.166667 L64.6,148.166667 L13.1,4.66666667 C12.1,1.66666667 10.6,0.166666667 8.6,0.166666667 C6.6,0.166666667 6.1,1.66666667 7.1,4.66666667 Z" id="Path-16" fill="#B19763"></path>
            <polygon id="Path-17" fill="#8A7140" points="84.1 129.666667 0.6 173.666667 6.6 173.666667 90.1 129.666667"></polygon>
            <polygon id="Path-18" fill="#B19763" points="90.1 129.666667 90.1 135.166667 6.6 181.166667 6.6 173.666667"></polygon>
            <path d="M25.1,61.6666667 L23.4394879,61.6666667 C21.8231918,61.6666667 20.4655916,62.8824515 20.2879877,64.48896 L20.2879877,64.48896 L20.2879877,64.48896 L3.6,169.166667 L8.6,169.166667 L25.1,61.6666667 Z" id="Path-29" fill="#8A7140"></path>
            <path d="M37.1,84.6666667 L95.6,82.6666667 C96.6,85.3333333 96.6,86.6666667 95.6,86.6666667 C94.6,86.6666667 75.1,87.5 37.1,89.1666667 L37.1,84.6666667 Z" id="Path-30" fill="#B19763"></path>
            <polygon id="Path-31" fill="#B19763" points="87.5 85.8926101 96.5 156.39261 91.5 156.39261 83 86.8926101"></polygon>
            <polygon id="Path-31" fill="#8A7140" points="83.5 85.8926101 92.5 156.39261 89.5 156.39261 81 86.8926101"></polygon>
        </g>
        <path d="M101.584045,548.34362 C98.4498479,535.971746 96.2183746,516 122.443707,516 C148.669039,516 140.103431,520.653746 134.972388,523.502341 C133.593579,524.267812 145.49648,553.512328 141.988449,554.012484 C138.480419,554.51264 133.028414,555.641552 131.464357,557.012796 C130.064779,558.239838 130.462063,560.046844 130.462063,562.014357 C130.462063,563.165829 141.487302,564.515137 149.505658,569.016541 C158.27084,573.937205 157.760596,589.31933 161.533192,599.025904 C168.034454,615.753107 174.215153,618.34944 180.260041,620.075349 C184.897154,613.335153 198.69318,605.739738 208.139886,599.025904 C211.468993,596.659886 210.05844,595.970778 213.326764,593.298557 C216.480541,579.651359 218.426661,573.22454 219.165125,574.018102 C220.038838,574.957004 220.319284,586.272015 219.666272,593.524188 C219.506804,595.295201 217.151055,600.392119 216.659389,601.026528 C208.107232,612.061604 206.485374,634.440687 184.250853,639.568158 C172.35632,642.311139 160.209498,649.100747 164.540075,652.542601 C168.304672,655.534626 178.641107,656.54385 182.080229,656.54385 C191.202084,656.54385 238.667798,645.081686 249.5,648.5 C256.721468,650.778876 268.820105,663.963228 285.795911,688.053057 C293.490959,689.084077 298.058989,689.899724 299.5,690.5 C300.891785,691.07977 302.501147,690.99922 302,693.5 C299.494264,695.500624 292.865299,695.114096 288.806236,696.556334 C285.701101,697.659628 283.887318,700.452444 280.286733,698.056802 C277.27985,696.056178 279.785586,695.556022 276.778702,693.055241 C268.381387,686.071319 245.462923,674.120957 242.972792,670.210619 C237.271633,677.047246 224.996903,685.233516 221.169714,686.053057 C213.188091,687.762214 175.128998,692.552023 170.568071,690.273147 C166.007144,687.994271 120.365651,707.692647 104.402406,661.54541 C88.4391602,615.398173 79.1793349,593.701753 82.7702199,579.108445 C86.361105,564.515137 104.575523,566.927889 105.905848,557.012796 C106.090978,555.63299 103.400111,555.512328 101.584045,548.34362 Z" id="Path-34" fill="#C8AB8B"></path>
        <path d="M131.03929,534.678305 C130.286272,531.050226 130.015332,528.099116 131.03929,526.09832 C133.433979,521.419139 135.061801,523.574795 135.564615,523.07009 C134.191432,523.897098 146.123707,553.371211 142.60401,553.875916 C139.084312,554.380621 133.614176,555.50161 132.044918,556.885326 C130.640685,558.123528 131.03929,559.946969 131.03929,561.932376 C131.03929,563.094321 142.101196,564.960606 150.146218,569.502951 C155.434211,572.488634 134.885802,575.935438 123.497081,559.408851 C121.291999,556.208976 127.209378,559.112346 127.016779,555.875916 C126.679537,550.208927 120.122077,536.794192 124.502709,534.678305 C125.74808,534.076779 128.321339,536.001346 130.033662,536.19242 C130.638508,536.259913 130.500639,534.678305 131.03929,534.678305 Z" id="Path-34" fill="#DCBF9F"></path>
        <path d="M182.501882,656.157922 C191.630232,656.157922 238.160085,644.554797 249,648 C256.22661,650.296802 268.559944,663.630136 286,688 C293.342333,688.691716 297.734518,689.340073 299.176555,689.945071 C300.569331,690.529401 302.674617,689.923682 302.173113,692.444134 C302.117033,692.48923 302.231614,692.905397 302.173113,692.944134 C299.615848,694.637479 291.263279,692.03954 287.29217,693.460613 C284.184823,694.572587 284.283145,692.452432 281.274121,689.93198 C277.704337,686.941819 268.837123,677.618055 265.250055,671.280635 C260.393141,662.699724 252.210949,654.141561 247.195908,654.141561 C239.171843,658.174284 205.890455,657.852387 202.060541,658.678374 C194.073235,660.400976 175.545702,692.449345 170.981527,690.152543 C166.417352,687.855741 179.060311,656.157922 182.501882,656.157922 Z" id="Path-34" fill="#DCBF9F"></path>
        <path d="M166,652 C177.521832,652.443496 185.139,652.775572 188.851503,652.996228 C195.097868,653.367486 200.30989,654.988683 202.761114,654.988683 C209.715919,654.988683 225.612617,659.471707 222.631986,687.366081 C206.735288,691.350992 196.30308,687.864195 181.896698,678.898146 C172.292443,672.920781 166.993544,663.954732 166,652 Z" id="Path-44" fill="#12A4E2"></path>
        <path d="M168,652 C180.90566,652.333333 189.90566,653.666667 195,656" id="Path-48" stroke="#FFFFFF" opacity="0.98999995"></path>
        <path d="M165,671.031916 C176.624637,671.485368 184.309769,671.824899 188.055398,672.050508 C194.357497,672.430101 199.616024,674.087694 202.089119,674.087694 C209.105979,674.087694 225.645721,658.808802 222.638495,687.3294 C206.599957,691.403771 196.074667,687.838697 181.539742,678.671362 C171.849792,672.559805 166.336545,670.013323 165,671.031916 Z" id="Path-44" fill="#087DAE"></path>
        <path d="M191.593751,598.055505 C198.004621,587.103501 200.862217,581.557088 200.166537,581.416266 C198.216782,581.021588 184.612849,596.394999 183.409374,596.52991 C173.148997,597.680104 142.498793,594.422176 129.175632,601.173746 C118.260175,606.705201 140.166334,618.188146 157.148997,615.680104 C162.422779,614.901259 165.175632,614.173746 172.675632,611.173746 C180.175632,608.173746 183.175632,606.673746 186.675632,604.173746 C187.739812,603.413617 189.379185,601.374203 191.593751,598.055505 Z" id="Path-43" fill="#C8AB8B" transform="translate(163.258549, 598.721019) rotate(-20.000000) translate(-163.258549, -598.721019) "></path>
        <path d="M112.5,700 L193.5,700 L193.5,700 L196,705 L112.5,705 C111.119288,705 110,703.880712 110,702.5 C110,701.119288 111.119288,700 112.5,700 Z" id="Path-32" fill="#8A7140"></path>
        <path d="M68,567 C71.3096978,577.869899 73.9430312,586.03246 75.9,591.487682 C94.7303802,643.979021 106.748652,676.306402 115.4,684.638104 C135.204488,703.710866 179.898331,697.892002 206.9,694.102586 C214.549098,693.029111 220.117007,686.848347 221,686.29854 C202.4,691.504944 188.9,682.538594 188.9,681.044202 C188.9,680.514632 184.951806,678.715145 179,670 C165,649.5 155,617.5 143,567.245326 C133.140386,566.15391 108.140386,566.072134 68,567 Z" id="Path-33" fill="#FFFFFF"></path>
        <g id="Group" transform="translate(68.000000, 567.000000)" fill="#12A4E2">
            <path d="M53,0 C68.6666667,58.6666667 81.1666667,94.3333333 90.5,107 C99.8333333,119.666667 117,126 142,126 C120.333333,124.333333 105.333333,118 97,107 C91.1623146,99.2942552 82.427114,79.4151619 72.5,47.5 C69.6707302,38.4040427 65.3373968,22.5707094 59.5,0 L53,0 Z" id="Path-58" opacity="0.98999995"></path>
            <path d="M66.5,-5.04485342e-13 C81.8333333,65 96.3333333,102.5 110,112.5 C123.666667,122.5 138,125.333333 153,121 C146.53849,121.788445 142.03849,122.121778 139.5,122 C133.139093,121.694851 128.737831,119.882096 125.5,118.5 C117.532859,115.099157 111.40218,108.603271 106,100.5 C95.3333333,84.5 84,51 72,-5.04485342e-13 L66.5,-5.04485342e-13 Z" id="Path-59" opacity="0.900000036"></path>
            <path d="M39,0 C49.6666667,35.3333333 58.3333333,62 65,80 C75,107 81.5,114.5 90.5,120 C99.5,125.5 113,129 117.5,129 C96.8333333,122 83.1666667,110.5 76.5,94.5 C69.8333333,78.5 59.5,47 45.5,0 L39,0 Z" id="Path-57" opacity="0.98999995"></path>
            <path d="M26,0 C31,16.6666667 36,31.8333333 41,45.5 C48.5,66 58,104.5 73,117.5 C88,130.5 94.5,130.5 106,130.5 C95,129 81.5,121.5 73,110 C64.5,98.5 55.5,74 46.5,45.5 C40.5,26.5 35.6666667,11.3333333 32,0 L26,0 Z" id="Path-56" opacity="0.98999995"></path>
            <path d="M0,0 C5.66666667,15.6666667 11,30.6666667 16,45 C23.5,66.5 37,113.5 53,122 C61,127 69.5,129.833333 78.5,130.5 C62.8333333,129.5 51.1666667,120.333333 43.5,103 C32,77 28,62 20.5,40.5 C15.5,26.1666667 10.6666667,12.6666667 6,0 L0,0 Z" id="Path-54"></path>
            <path d="M13,0 L19.5,0 C23.8333333,14.3333333 27.6666667,26.6666667 31,37 C36,52.5 54,103.5 61,112.5 C68,121.5 74,127 89,131 C87,131 69,130.5 57.5,115.5 C46,100.5 30.5,52.5 25.5,37 C22.1666667,26.6666667 18,14.3333333 13,0 Z" id="Path-55" opacity="0.98999995"></path>
        </g>
        <path d="M60.5,563 L141.5,563 L141.5,563 L144,568 L60.5,568 C59.1192881,568 58,566.880712 58,565.5 C58,564.119288 59.1192881,563 60.5,563 Z" id="Path-32" fill="#FFFFFF"></path>
        <g id="Group-3" transform="translate(139.000000, 556.000000)">
            <polygon id="Path-20" fill="#B19763" points="13.6 169.166667 24.1 61.6666667 27.6 63.1666667 17.1 169.166667"></polygon>
            <path d="M0.1,4.66666667 L51.1,148.166667 L57.6,148.166667 L7.1,0.166666667 C4.76666667,-0.166666667 2.93333333,2.22710739e-13 1.6,0.666666667 C0.266666667,1.33333333 -0.233333333,2.66666667 0.1,4.66666667 Z" id="Path-16" fill="#8A7140"></path>
            <path d="M6.1,4.66666667 L57.1,148.166667 L63.6,148.166667 L12.1,4.66666667 C11.1,1.66666667 9.6,0.166666667 7.6,0.166666667 C5.6,0.166666667 5.1,1.66666667 6.1,4.66666667 Z" id="Path-16" fill="#B19763"></path>
            <path d="M80.4128641,131.23268 L80.4128641,131.23268 L80.4128641,131.23268 L7.6,173.666667 L13.6,173.666667 L89.1,129.666667 L86.2101602,129.666667 C84.1732243,129.666667 82.1727489,130.207051 80.4128641,131.23268 Z" id="Path-17" fill="#8A7140"></path>
            <polygon id="Path-18" fill="#B19763" points="89.1 129.666667 89.1 135.166667 13.6 181.166667 13.6 173.666667"></polygon>
            <path d="M24.1,61.6666667 L22.6407612,61.6666667 C20.9098962,61.6666667 19.4560643,62.9686307 19.2658711,64.6890145 L19.2658711,64.6890145 L19.2658711,64.6890145 L8.6,169.166667 L13.6,169.166667 L24.1,61.6666667 Z" id="Path-29" fill="#8A7140"></path>
            <polygon id="Path-31" fill="#8A7140" points="80.6 83.6666667 96.6 162.166667 91.6 162.166667 76.1 84.6666667"></polygon>
            <polygon id="Path-31" fill="#B19763" points="82.6 83.6666667 98.6 162.166667 94.6 162.166667 79.1 84.6666667"></polygon>
            <path d="M36.1,84.6666667 L94.6,79.6666667 C95.6,82.3333333 95.6,83.6666667 94.6,83.6666667 C94.3919811,83.6666667 74.8919811,85.5 36.1,89.1666667 L36.1,84.6666667 Z" id="Path-30" fill="#B19763"></path>
        </g>
        <path d="M197.00809,555.033938 L220.352313,555.358623 C222.009007,555.381665 223.333343,556.74336 223.310301,558.400054 C223.307596,558.594531 223.285985,558.788284 223.245774,558.978578 L215.502876,595.620245 C215.209745,597.007425 213.985506,598 212.567693,598 L188.740907,598 C187.084052,598 185.740907,596.656854 185.740907,595 C185.740907,594.780836 185.764923,594.562332 185.812525,594.3484 L194.037987,557.382047 C194.346722,555.994551 195.586798,555.01417 197.00809,555.033938 Z" id="Path-37" fill="#EAEAEA"></path>
        <path d="M195.081553,555 L219.245805,555 C220.902659,555 222.245805,556.343146 222.245805,558 C222.245805,558.222635 222.221022,558.444577 222.171914,558.661728 L213.806149,595.654473 C213.496175,597.025155 212.27626,597.996979 210.870972,597.992731 L186.740826,597.919793 C185.083979,597.914785 183.744899,596.567585 183.749907,594.910739 C183.75057,594.691592 183.775243,594.473178 183.823484,594.259407 L192.155144,557.3396 C192.463861,555.971592 193.679144,555 195.081553,555 Z" id="Path-37" fill="#FFFFFF"></path>
        <path d="M196.183349,557 L217.744569,557 C218.296854,557 218.744569,557.447715 218.744569,558 C218.744569,558.07526 218.736073,558.15028 218.719242,558.223635 L211.325658,590.44727 C211.117174,591.355911 210.308564,592 209.376312,592 L188.239396,592 C187.687112,592 187.239396,591.552285 187.239396,591 C187.239396,590.928934 187.246972,590.858071 187.261994,590.788611 L194.228545,558.577223 C194.427599,557.656853 195.2417,557 196.183349,557 Z" id="Path-37" fill="#EAEAEA"></path>
        <path d="M-27.1126648,709.866494 C-9.47789908,714.838083 -9.0138263,701.414791 15.1179583,709.866494 C39.249743,718.318196 37.8575246,719.809673 55.4922903,719.809673 C73.127056,719.809673 123.246916,718.318196 130.672081,718.318196 C138.097245,718.318196 104.219932,715.335242 144.594264,719.809673 C184.968596,724.284104 190.073397,728.758534 198.89078,724.284104 C207.708163,719.809673 239.179636,719.011364 241.5,721 C241.775933,721.236485 264.185609,721.343628 284,724.5 C305.15107,727.8693 325.614433,735.860808 341.5,740.5 C352.81467,743.804316 363.418528,743.994525 363,746 C359.927611,760.722054 223.010287,774 220.238128,774 C216.061473,774 5.37242993,764.55398 2.58799324,761.571026 C1.47794547,760.381837 -95.9930984,766.378077 -103.792762,756 C-115.557724,740.345775 -37.7171279,706.876885 -27.1126648,709.866494 Z" id="Path-9" fill="#FCEBC1"></path>
        <path d="M123.200758,713.617219 C130.075641,709.48467 133.022019,707.123213 136.950524,708.303941 C140.879029,709.48467 143.334344,710.075034 145.298596,711.255762 C147.262849,712.43649 149.718164,713.617219 146.280722,713.617219 C143.913616,713.617219 145.053256,714.779155 142.606775,715.330629 C134.749766,717.101722 130.566704,714.797947 129.093515,714.797947 C127.620326,714.797947 116.325875,717.749768 123.200758,713.617219 Z" id="Path-45" fill="#FCEBC1"></path>
        <path d="M221.200758,722.747002 C228.075641,718.518972 231.022019,716.102955 234.950524,717.310964 C238.879029,718.518972 241.334344,719.122976 243.298596,720.330985 C245.262849,721.538993 247.718164,722.747002 244.280722,722.747002 C241.913616,722.747002 241.325509,722.182785 238.879029,722.747002 C231.022019,724.559014 228.566704,723.95501 227.093515,723.95501 C225.620326,723.95501 214.325875,726.975031 221.200758,722.747002 Z" id="Path-45" fill="#FCEBC1"></path>
        <path d="M105.438809,557.572616 C106.983267,558.604412 118.309293,557.572616 123.457487,556.54082 C128.60568,555.509024 122.427848,546.738759 122.427848,537.968494 C122.427848,529.198229 127.061222,533.841311 129.635319,534.873107 C132.209416,535.904903 127.576041,528.682331 129.1205,526.102842 C130.664958,523.523352 135.298332,523.523352 135.813151,523.523352 C136.327971,523.523352 144.050261,519.396169 141.476164,517.332577 C138.902068,515.268985 104.438809,510.625904 100.320254,525.586944 C96.2016987,540.547984 103.894351,556.54082 105.438809,557.572616 Z" id="Path-46" fill="#696969"></path>
        <path d="M197.965526,561.494333 L214,561.494333 M197.368973,564.195466 L213.403447,564.195466 M196.772421,566.8966 L212.806895,566.8966 M196.175868,569.597733 L212.210342,569.597733 M195.579315,572.298867 L211.61379,572.298867 M194.982763,575 L211.017237,575 M194.38621,577.701133 L210.420685,577.701133 M193.789658,580.402267 L209.824132,580.402267 M193.193105,583.1034 L209.227579,583.1034 M192.596553,585.804534 L208.631027,585.804534 M192,588.505667 L208.034474,588.505667" id="Combined-Shape" stroke="#979797" stroke-linecap="round"></path>
        <path d="M143,535 C142.666667,535 135.666667,534.666667 122,534" id="Path-51" stroke="#EDC001" stroke-linecap="round"></path>
        <path d="M210.013065,584.038302 C210.013065,586.03801 211.34066,590.248836 213.209448,592.928622 C213.498065,593.34249 213.796353,594.719374 213.205504,596.191509 C212.778158,597.256269 209.778359,598.038345 210.013065,598.217044 C210.638883,598.693526 213.063248,599.394257 213.737578,598.723428 C215.929837,596.542544 217.336927,589.489402 216.930017,589.102138 C216.690133,588.873836 215.033428,588.334789 214.269651,586.57022 C213.33934,584.420904 212.725736,581 212.141358,581 C211.077212,581 210.013065,581.506384 210.013065,584.038302 Z" id="Path-52" fill="#C8AB8B"></path>
        <path d="M194,662 C199.333333,664.666667 202,670 202,678" id="Path-53" stroke="#087DAE"></path>
        <circle id="Oval" fill="#D8D8D8" cx="178" cy="643" r="1"></circle>
        <circle id="Oval" fill="#D8D8D8" cx="201" cy="705" r="1"></circle>
        <circle id="Oval" fill="#D8D8D8" cx="230" cy="688" r="1"></circle>
        <circle id="Oval" fill="#D8D8D8" cx="78" cy="620" r="1"></circle>
        <circle id="Oval" fill="#D8D8D8" cx="150" cy="564" r="1"></circle>
    </g>
</svg>