<svg height="26" width="26" xmlns="http://www.w3.org/2000/svg"><g fill="none" fill-rule="evenodd"><path d="M1.4 18.8a12.8 12.8 0 010-11.6l4.4 3.4a7.6 7.6 0 000 4.8z" fill="#ebb000"/><path d="M1.4 7.2C3.5 3 8 0 13.3 0c3.4 0 6.4 1.2 8.8 3.3L18.2 7c-1.3-1-3-1.7-4.9-1.7a7.8 7.8 0 00-7.5 5.3z" fill="#dd3d29"/><path d="M1.4 18.8l4.4-3.4c1 3 4 5.3 7.5 5.3 3.7 0 6.5-1.9 7.1-5h-7.1v-5h12.4A12.4 12.4 0 0113.3 26c-5.3-.1-9.8-3-12-7.3z" fill="#2b9d4b"/><path d="M22 22.8l-4.3-3.3a5.9 5.9 0 002.7-3.8h-7.1v-5h12.4A12.8 12.8 0 0122 22.7z" fill="#3879e7"/></g></svg>