<svg width="622px" height="275px" viewBox="0 0 622 275" version="1.1" xmlns="http://www.w3.org/2000/svg" xmlns:xlink="http://www.w3.org/1999/xlink">
    <title>Rectangle Copy 11</title>
    <defs>
        <polygon id="path-1" points="0 0 622 0 622 275 0 275"></polygon>
    </defs>
    <g id="Page-1" stroke="none" stroke-width="1" fill="none" fill-rule="evenodd">
        <g id="Artboard-Copy" transform="translate(-510.000000, -69.000000)">
            <g id="Rectangle-Copy-11" transform="translate(510.000000, 69.000000)">
                <mask id="mask-2" fill="white">
                    <use xlink:href="#path-1"></use>
                </mask>
                <g id="Rectangle-Copy-8"></g>
                <g id="Group-3" mask="url(#mask-2)">
                    <g transform="translate(11.000000, 29.000000)">
                        <g id="BG" stroke-width="1" fill="none">
                            <path d="M128.406279,243 L139.239418,321.900013 L576.706274,321.900013 C533.066658,258.654936 501.351113,216.150393 481.559639,194.386386 C479.76312,192.410815 434.045333,186.615353 344.406279,177 L321.906279,168.5 C409.802914,167.371248 451.858563,165.260731 448.073227,162.168448 C440.280865,155.802783 432.211562,149.581789 423.865318,143.505466 C352.892626,91.8351552 276.572946,64.6666667 194.906279,62 C166.439598,81.3333333 147.439598,102.5 137.906279,125.5 C128.372961,148.5 125.206294,187.666667 128.406279,243 Z" id="Path-50" fill="#005377" transform="translate(351.953140, 191.950006) scale(-1, 1) translate(-351.953140, -191.950006) "></path>
                            <path d="M303,100 C304.104569,100 305,100.895431 305,102 L305,102 L305,158 L305,158 L311,158 L311,114 C311,112.895431 311.895431,112 313,112 L313,112 L319,112 C320.104569,112 321,112.895431 321,114 L321,114 L321,158 L321,158 L327,158 L327,107 C327,105.895431 327.895431,105 329,105 L329,105 L335,105 C336.104569,105 337,105.895431 337,107 L337,107 L337,158 L337,158 L343,158 L343,114 C343,112.895431 343.895431,112 345,112 L345,112 L351,112 C352.104569,112 353,112.895431 353,114 L353,114 L353,158 L353,158 L359,158 L359,130 C359,128.895431 359.895431,128 361,128 L361,128 L367,128 C368.104569,128 369,128.895431 369,130 L369,130 L369,158 L369,158 L380,158 C381.104569,158 382,158.895431 382,160 L382,167 C382,168.104569 381.104569,169 380,169 L217,169 C215.895431,169 215,168.104569 215,167 L215,160 C215,158.895431 215.895431,158 217,158 L231,158 L231,114 C231,112.895431 231.895431,112 233,112 L233,112 L239,112 C240.104569,112 241,112.895431 241,114 L241,114 L241,158 L241,158 L247,158 L247,107 C247,105.895431 247.895431,105 249,105 L249,105 L255,105 C256.104569,105 257,105.895431 257,107 L257,107 L257,158 L257,158 L263,158 L263,114 C263,112.895431 263.895431,112 265,112 L265,112 L271,112 C272.104569,112 273,112.895431 273,114 L273,114 L273,158 L273,158 L279,158 L279,114 C279,112.895431 279.895431,112 281,112 L281,112 L287,112 C288.104569,112 289,112.895431 289,114 L289,114 L289,158 L289,158 L295,158 L295,102 C295,100.895431 295.895431,100 297,100 L297,100 Z" id="Combined-Shape" fill="#032838"></path>
                            <path d="M528.900021,92.4000037 C529.562763,92.4000037 530.100021,92.937262 530.100021,93.6000037 L530.100021,175.200004 C530.100021,175.862745 529.562763,176.400004 528.900021,176.400004 L474.000019,176.400004 C473.337277,176.400004 472.800019,175.862745 472.800019,175.200004 L472.800019,93.6000037 C472.800019,92.937262 473.337277,92.4000037 474.000019,92.4000037 L528.900021,92.4000037 Z M464.100018,92.4000037 C464.76276,92.4000037 465.300018,92.937262 465.300018,93.6000037 L465.300018,175.200004 C465.300018,175.862745 464.76276,176.400004 464.100018,176.400004 L409.200016,176.400004 C408.537275,176.400004 408.000016,175.862745 408.000016,175.200004 L408.000016,93.6000037 C408.000016,92.937262 408.537275,92.4000037 409.200016,92.4000037 L464.100018,92.4000037 Z M464.100018,0 C464.76276,-3.43788285e-16 465.300018,0.537258322 465.300018,1.20000005 L465.300018,82.8 C465.300018,83.4627417 464.76276,84 464.100018,84 L409.200016,84 C408.537275,84 408.000016,83.4627417 408.000016,82.8 L408.000016,1.20000005 C408.000016,0.537258322 408.537275,-1.00300925e-16 409.200016,0 L464.100018,0 Z M528.900021,0 C529.562763,-3.43788285e-16 530.100021,0.537258322 530.100021,1.20000005 L530.100021,82.8 C530.100021,83.4627417 529.562763,84 528.900021,84 L474.000019,84 C473.337277,84 472.800019,83.4627417 472.800019,82.8 L472.800019,1.20000005 C472.800019,0.537258322 473.337277,-1.00300925e-16 474.000019,0 L528.900021,0 Z" id="Combined-Shape" fill="#032838"></path>
                            <rect id="Rectangle" fill="#032838" x="0" y="191.100008" width="21.6000009" height="93.3000037"></rect>
                            <rect id="Rectangle" fill="#032838" x="96.3000038" y="191.100008" width="16.2000006" height="93.3000037"></rect>
                            <path d="M21.6000009,197.700008 C33.3512768,191.000008 45.8012773,187.650007 58.9500023,187.650007 C72.0987274,187.650007 84.5487278,191.000008 96.3000038,197.700008 L96.3000038,291.000012 L21.6000009,291.000012 L21.6000009,197.700008 Z" id="Rectangle" fill="#032838"></path>
                            <path d="M107.694807,239.112361 C126.172952,236.998625 187.94481,229.51236 239.544813,245.412361 C239.818844,245.496801 257.544813,241.962361 255.444813,241.962361 C253.344813,241.962361 257.544813,252.462361 255.444813,252.462361 C253.344813,252.462361 149.694809,262.512362 147.894809,262.512362 C146.094809,262.512362 100.644807,255.312361 100.644807,255.312361 C100.644807,255.312361 67.0448057,243.762361 107.694807,239.112361 Z" id="Path-10" fill="#032838"></path>
                            <path d="M179.452828,234.971905 C197.360055,232.836547 220.181196,238.517091 239.806131,244.564309 C239.912336,244.597035 242.794555,243.970163 245.998689,243.305264 L246.566966,243.18766 C246.757173,243.148412 246.947994,243.109158 247.13893,243.070026 L247.13893,243.070026 L248.052209,242.881793 L248.657936,242.755724 C251.249281,242.214178 253.660026,241.682065 254.754635,241.375242 L254.754635,241.375242 L256.525987,240.878726 L255.811978,242.574133 C255.503573,243.306438 255.897523,244.940226 256.229393,246.60954 L256.229393,246.60954 L256.400833,247.468446 C256.5774,248.35658 256.743656,249.228706 256.842178,249.986755 C256.927963,250.646802 256.960955,251.228331 256.9209,251.678262 C256.884995,252.08158 256.78678,252.403534 256.652491,252.63906 C254.632879,253.315278 230.630281,255.611765 205.554323,257.998387 L204.002048,258.146115 L204.002048,258.146115 L203.225227,258.22004 L200.057638,258.521499 L198.592336,258.66096 C197.57689,258.757605 196.56295,258.854102 195.551965,258.950306 L194.037885,259.094375 C170.357701,261.347462 148.709568,263.399762 147.894809,263.399762 C147.834499,263.399762 147.66004,263.388517 147.379583,263.366726 C147.266192,263.237109 147.166353,263.072469 147.07503,262.852128 C146.833274,262.268826 146.90984,261.919206 147.099394,261.466052 C147.302885,260.979582 147.69099,260.273082 148.248025,259.402782 C149.191343,257.928962 150.632604,255.954503 152.448655,253.763798 C155.078656,250.591226 158.496652,246.962358 162.319254,243.743851 C167.594479,239.302282 173.639083,235.665169 179.452828,234.971905 Z" id="Path-10" stroke="#2A2A2A" stroke-width="1.77479995" fill="#12A4E2" fill-rule="nonzero"></path>
                            <circle id="Oval" fill="#032838" cx="10.8000004" cy="186.000007" r="7.5000003"></circle>
                            <circle id="Oval" fill="#032838" cx="104.400004" cy="186.600007" r="5.70000023"></circle>
                            <rect id="Rectangle" fill="#032838" x="229.500009" y="228.600009" width="21.6000009" height="93.3000037"></rect>
                            <path d="M250.20001,242.85001 C261.951286,236.150009 274.401286,232.800009 287.550011,232.800009 C300.698736,232.800009 313.148737,236.150009 324.900013,242.85001 L324.900013,336.150013 L250.20001,336.150013 L250.20001,242.85001 Z" id="Rectangle" fill="#032838"></path>
                            <circle id="Oval" fill="#032838" cx="240.30001" cy="222.900009" r="7.5000003"></circle>
                            <path d="M499.583817,16.000046 C506.268446,16.3084394 511.593302,21.8256031 511.593302,28.5864535 C511.593302,35.5452416 505.95209,41.186454 498.993302,41.186454 C496.823797,41.186454 494.782357,40.6381438 493,39.672541 C493.196483,39.6818431 493.394354,39.686454 493.593302,39.686454 C500.55209,39.686454 506.193302,34.0452416 506.193302,27.0864535 C506.193302,22.379038 503.611813,18.2745615 499.787266,16.1114551 Z" id="Combined-Shape" fill="#FFFFFF"></path>
                        </g>
                        <g id="Group-2" stroke-width="1" fill="none" transform="translate(256.200010, 33.500001)">
                            <g id="Group" transform="translate(245.799990, 0.000000)" stroke="#2A2A2A">
                                <g id="author" transform="translate(48.761591, 84.500000) scale(-1, 1) translate(-48.761591, -84.500000) translate(0.761591, 0.000000)">
                                    <polygon id="Path-47" stroke-width="1.77479995" fill="#FFFFFF" points="57.5312238 29.5063949 5.45658972 96.4260373 5.45658972 108.215744 27.2737697 168.847244 31.5149643 162.231111 11.6107763 101.612819 61.3712462 34.3816228"></polygon>
                                    <polygon id="Path-47-Copy-2" stroke-width="1.77479995" fill="#D7D7D7" stroke-linecap="round" stroke-linejoin="round" points="57.1883647 37.0267846 8.43487479 101.392389 31.1490533 165.190842 34.6509106 161.34939 15.3827668 108.215744 16.404325 97.4246462 59.8972219 40.1237729"></polygon>
                                    <path d="M11.0578822,96.2079112 C13.3401855,96.2079112 14.5301759,96.3955812 15.3732813,96.5282255 C15.7558621,96.5884163 16.0579851,96.6384557 16.3680677,96.6448298 C17.9944894,98.0632426 18.4322739,99.2220089 18.4322739,102.013838 C18.4322739,103.303186 17.7833406,104.857049 16.3923667,106.653001 C13.8161132,107.525645 12.1592214,107.828949 11.0578822,107.828949 C9.18391198,107.828949 7.48745444,107.071695 6.25942117,105.847702 C5.03054534,104.622868 4.2706705,102.930721 4.2706705,101.061744 C4.2706705,99.2458792 4.96883944,98.0799433 6.06898024,97.3295308 C7.28055253,96.5031101 9.05775906,96.2079112 11.0578822,96.2079112 Z" id="Oval-Copy-6" stroke-width="1.41075297" fill="#D7D7D7"></path>
                                    <polyline id="Path-47-Copy" stroke-width="1.41075297" stroke-linecap="round" stroke-linejoin="round" points="57.1883647 37.0267846 8.43487479 101.392389 32.8027108 168.847244 34.6509106 161.34939"></polyline>
                                    <path d="M36.4910113,161.343711 C46.9641237,161.343711 54.7101207,163.993014 59.7771254,169.18034 L59.7771254,169.18034 L13.1162398,169.18034 C18.6566719,163.859195 26.2783078,161.343711 36.4910113,161.343711 Z" id="Oval" stroke-width="1.77479995" fill="#FFFFFF"></path>
                                    <g id="Group-7" transform="translate(65.327804, 30.978976) rotate(-40.000000) translate(-65.327804, -30.978976) translate(43.827804, 9.478976)" stroke-width="1.77479995">
                                        <path d="M21.0099762,-0.887399974 C22.7315366,-0.887399974 24.4095273,0.0505185482 25.9230566,1.88385062 C27.3304597,3.58863259 28.6077549,6.08144199 29.6687432,9.18411921 C31.6949545,15.1094246 32.9552584,23.2942578 32.9552584,32.3368691 C32.9552584,36.208262 31.943377,38.4125478 30.4509489,39.7152793 C28.5096208,41.409853 25.620033,41.5789159 22.5307847,41.536973 L22.5307847,41.536973 L21.9158219,41.5274108 L21.1010644,41.5146693 C17.0564028,41.4919131 13.8936097,41.275328 11.8470016,39.7541441 C10.1153149,38.467032 9.06469401,36.2778979 9.06469401,32.3368691 C9.06469401,23.2942578 10.3249979,15.1094246 12.3512092,9.18411921 C13.4121975,6.08144199 14.6894926,3.58863259 16.0968958,1.88385062 C17.610425,0.0505185482 19.2884157,-0.887399974 21.0099762,-0.887399974 Z" id="Oval-Copy-4" fill="#FFFFFF"></path>
                                        <path d="M21.0099762,13.4405599 C27.0564343,13.4405599 32.5303439,15.8835309 36.4927247,19.8328776 C40.4561656,23.7832809 42.9073523,29.2407819 42.9073523,35.2688243 C42.9073523,36.5423504 42.4879163,37.5704496 41.7378157,38.4047252 C40.9917575,39.2345047 39.8932896,39.8732533 38.5010912,40.3359627 C35.4144164,41.3618463 30.8014669,41.5394744 25.8094301,41.5437832 L25.8094301,41.5437832 L25.1018985,41.5434207 C24.8650917,41.5430021 24.6275649,41.5423118 24.3888266,41.5414247 L24.3888266,41.5414247 L23.6740259,41.5382719 L23.6740259,41.5382719 L22.6161913,41.5324932 L21.8774015,41.5283686 C21.5176812,41.5264412 21.157619,41.5246891 20.7976387,41.5233743 C20.3186619,41.5216248 19.8398303,41.5208327 19.3623571,41.5203553 L19.3623571,41.5203553 L18.2881447,41.5195406 C18.0498449,41.5193573 17.8120197,41.5191323 17.5742325,41.5187843 L17.5742325,41.5187843 L16.8644272,41.5172963 C11.68545,41.5025541 6.85339234,41.3736406 3.63408999,40.3504017 C2.20683805,39.8967569 1.07947034,39.2635522 0.3140599,38.4328409 C-0.456108388,37.5969659 -0.887399974,36.5608862 -0.887399974,35.2688243 C-0.887399974,29.2407819 1.56378673,23.7832809 5.52722761,19.8328776 C9.48960851,15.8835309 14.963518,13.4405599 21.0099762,13.4405599 Z" id="Oval" fill="#FFFFFF"></path>
                                        <g id="Oval" transform="translate(0.000000, 30.860221)">
                                            <ellipse id="Mask" fill="#EDC001" cx="21.0099762" cy="5.51075379" rx="21.8973762" ry="6.39815377"></ellipse>
                                            <path d="M21.0099762,-0.887399974 C23.3019425,-0.887399974 25.5091687,-0.792152547 27.577369,-0.616077689 C27.8857561,-0.589823363 28.1968859,-0.561275308 28.5102954,-0.530411084 C28.4857488,-0.202907498 28.4393392,0.125119882 28.3703034,0.451671131 C28.007893,2.1659344 27.0588294,3.66503153 25.7411846,4.72907953 C24.4489349,5.77262003 22.8027912,6.39815377 21.0099762,6.39815377 C19.2171611,6.39815377 17.5710174,5.77262001 16.2787677,4.72907943 C14.9611229,3.66503139 14.0120594,2.16593419 13.6496489,0.451670766 C13.580591,0.125014856 13.5341738,-0.203118127 13.5097647,-0.530455263 C13.8233213,-0.56129915 14.1343226,-0.58983452 14.4425835,-0.616078046 C16.5107838,-0.792152552 18.7180099,-0.887399974 21.0099762,-0.887399974 Z" id="Path" fill="#FFFFFF" fill-rule="nonzero"></path>
                                        </g>
                                    </g>
                                    <ellipse id="Oval" stroke-width="1.77479995" fill="#FFFFFF" cx="6.63472932" cy="101.612819" rx="6.63472932" ry="6.61290455"></ellipse>
                                    <ellipse id="Oval-Copy-5" stroke-width="1.41075297" fill="#FFFFFF" cx="6.63472932" cy="101.612819" rx="2.91695293" ry="2.909678"></ellipse>
                                </g>
                            </g>
                            <rect id="Rectangle" fill="#032838" x="39.9000016" y="181.900007" width="288.300011" height="89.1000035"></rect>
                            <rect id="Rectangle" fill="#032838" x="0" y="168.400007" width="342.900014" height="13.5000005" rx="3.30000013"></rect>
                        </g>
                        <rect id="Rectangle" fill="#032838" x="325.800013" y="228.600009" width="16.2000006" height="93.3000037"></rect>
                        <g id="short-story" stroke-width="1" fill="none" transform="translate(359.000000, 53.000000)">
                            <path d="M97.6235831,35.7062361 C97.55604,36.5819476 97.4868022,37.4808736 97.4158685,38.4030143 C96.0784907,55.7889218 95.4074341,64.9276622 95.4074341,65.8192531 C94.349969,67.247747 93.8890805,67.4937223 93.3301333,67.7449888 C92.4086006,68.1592502 91.1816333,68.575858 89.8703792,68.8618921 C87.9032901,69.2909886 85.7589492,69.4095268 84.1304822,68.8667045 C82.7868561,68.4188291 81.7668142,67.550314 81.3202393,66.1302594 C80.9718862,65.022538 80.9824378,63.5257385 81.6053995,61.5322608 C83.868303,54.2909698 88.6083722,46.3636 95.8511026,37.7628578 C96.4439065,37.0589031 97.0351177,36.372237 97.6235831,35.7062361 Z" id="Path-31" stroke="#2A2A2A" stroke-width="1.77615947" fill="#4B4B4B" fill-rule="nonzero"></path>
                            <path d="M181.283699,155.428428 C178.096654,160.02532 176.519788,165.687527 176.519788,172.404909 C176.519788,179.122289 178.096654,184.784496 181.283699,189.381389 L181.283699,189.381389 L80.8946241,189.381389 L80.8946241,155.428428 L181.283699,155.428428 Z" id="Rectangle" stroke="#2A2A2A" stroke-width="1.77615947" fill="#FFFFFF" fill-rule="nonzero"></path>
                            <path d="M81.7827038,156.316508 L179.653808,156.316508 C178.313108,158.551007 177.329929,161.008958 176.704268,163.690358 C176.704268,163.690358 144.616847,163.690358 80.4420037,163.690358 L81.7827038,156.316508 Z" id="Rectangle" fill="#D3D3D3" fill-rule="nonzero"></path>
                            <path d="M176.972408,184.203069 L80.4420037,184.203069 M175.631708,180.851319 L79.1013036,180.851319 M175.631708,176.829219 L79.1013036,176.829219 M174.961358,172.807119 L79.1013036,172.807119 M174.961358,168.785018 L79.1013036,168.785018 M175.631708,164.762918 L79.1013036,164.762918 M176.972408,160.740818 L80.4420037,160.740818" id="Combined-Shape" stroke="#D3D3D3" stroke-width="0.545000017" stroke-linecap="round" stroke-linejoin="round"></path>
                            <path d="M167.587508,152.747028 C173.015882,152.747028 177.930352,154.947311 181.487728,158.504687 C185.045105,162.062064 187.245388,166.976535 187.245388,172.404909 C187.245388,177.833282 185.045105,182.747753 181.487728,186.305129 C177.930352,189.862506 173.015882,192.062789 167.587508,192.062789 L167.587508,192.062789 L2.68140012,192.062789 C2.06593956,192.062789 1.50874461,191.813324 1.10541484,191.409994 C0.702084938,191.006665 0.452620341,190.44947 0.452620341,189.834009 C0.452620341,189.218548 0.702084938,188.661353 1.10541484,188.258023 C1.50874461,187.854694 2.06593956,187.60523 2.68140012,187.60523 L2.68140012,187.60523 L89.8269041,187.60523 C94.0243572,187.60523 97.8244374,185.903874 100.575154,183.153157 C103.325871,180.40244 105.027225,176.60236 105.027225,172.404909 C105.027225,168.207455 103.325871,164.407375 100.575154,161.656658 C97.8244374,158.905941 94.0243572,157.204587 89.8269041,157.204587 L89.8269041,157.204587 L2.68140012,157.204587 C2.06593956,157.204587 1.50874461,156.955122 1.10541484,156.551793 C0.702084938,156.148463 0.452620341,155.591268 0.452620341,154.975808 C0.452620341,154.360346 0.702084938,153.803151 1.10541484,153.399821 C1.50874461,152.996492 2.06593956,152.747028 2.68140012,152.747028 L2.68140012,152.747028 L167.587508,152.747028 Z" id="Rectangle" stroke="#2A2A2A" stroke-width="1.77615947" fill="#12A4E2" fill-rule="nonzero" transform="translate(93.849004, 172.404909) scale(-1, 1) translate(-93.849004, -172.404909) "></path>
                            <path d="M21.451201,153.635108 L29.4954014,153.635108 C19.1377941,153.878 10.9381972,162.471402 11.1810891,172.829009 C11.4159725,182.845106 19.4800296,190.908847 29.4961365,191.143338 L30.8361014,191.174709 L21.451201,191.174709 C11.0849262,189.579897 3.97425033,179.883521 5.56906186,169.517246 C6.80700075,161.470643 13.0303446,155.125715 21.0140023,153.707556 L21.451201,153.635108 Z" id="Rectangle" fill="#087DAE" fill-rule="nonzero"></path>
                            <path d="M87.145504,153.635108 L95.1897044,153.635108 C84.8320971,153.878 76.6325002,162.471402 76.8753922,172.829009 C77.1102756,182.845106 85.1743326,190.908847 95.1904391,191.143338 L96.5304045,191.174709 L87.145504,191.174709 C76.7792292,189.579897 69.6685534,179.883521 71.2633649,169.517246 C72.5013038,161.470643 78.7246476,155.125715 86.7083053,153.707556 L87.145504,153.635108 Z" id="Rectangle" fill="#087DAE" fill-rule="nonzero"></path>
                            <path d="M161.316153,120.570226 C158.033333,124.601481 156.409287,129.593829 156.409287,135.535657 C156.409287,141.477484 158.033333,146.469831 161.316153,150.501087 L161.316153,150.501087 L60.7841231,150.501087 L60.7841231,120.570226 L161.316153,120.570226 Z" id="Rectangle" stroke="#2A2A2A" stroke-width="1.77615947" fill="#FFFFFF" fill-rule="nonzero"></path>
                            <path d="M61.6722028,121.458306 L159.543307,121.458306 C158.202607,123.489669 157.219428,125.724169 156.593767,128.161806 C156.593767,128.161806 124.506346,128.161806 60.3315028,128.161806 L61.6722028,121.458306 Z" id="Rectangle" fill="#D3D3D3" fill-rule="nonzero"></path>
                            <path d="M156.861907,145.011144 L60.3315028,145.011144 M155.521207,142.112334 L58.9908027,142.112334 M155.521207,138.63376 L58.9908027,138.63376 M154.850857,135.155188 L58.9908027,135.155188 M154.850857,131.676614 L58.9908027,131.676614 M155.521207,128.198041 L58.9908027,128.198041 M156.861907,124.719468 L60.3315028,124.719468" id="Combined-Shape" stroke="#D3D3D3" stroke-width="0.545000017" stroke-linecap="round" stroke-linejoin="round"></path>
                            <path d="M151.499107,117.888826 C156.187032,117.888826 160.431152,119.788983 163.503292,122.861122 C166.575431,125.933261 168.475587,130.177381 168.475587,134.865307 C168.475587,139.553232 166.575431,143.797352 163.503292,146.86949 C160.431152,149.941629 156.187032,151.841787 151.499107,151.841787 L151.499107,151.841787 L15.8968722,151.841787 C15.3343008,151.841787 14.824988,151.61376 14.456318,151.24509 C14.087648,150.87642 13.859621,150.367107 13.859621,149.804536 C13.859621,149.241965 14.087648,148.732652 14.456318,148.363982 C14.824988,147.995311 15.3343008,147.767284 15.8968722,147.767284 L15.8968722,147.767284 L94.8066476,147.767284 C98.3694307,147.767284 101.594924,146.323182 103.929723,143.988382 C106.264522,141.653584 107.708625,138.428088 107.708625,134.865307 C107.708625,131.302523 106.264522,128.077029 103.929723,125.74223 C101.594924,123.407431 98.3694307,121.963328 94.8066476,121.963328 L94.8066476,121.963328 L15.8968722,121.963328 C15.3343008,121.963328 14.824988,121.735301 14.456318,121.366631 C14.087648,120.997961 13.859621,120.488648 13.859621,119.926077 C13.859621,119.363506 14.087648,118.854193 14.456318,118.485523 C14.824988,118.116853 15.3343008,117.888826 15.8968722,117.888826 L15.8968722,117.888826 L151.499107,117.888826 Z" id="Rectangle" stroke="#2A2A2A" stroke-width="1.77615947" fill="#5D5D5D" fill-rule="nonzero" transform="translate(91.167604, 134.865307) scale(-1, 1) translate(-91.167604, -134.865307) "></path>
                            <path d="M34.864549,118.776906 L42.9033087,118.776906 C32.5527068,118.985099 24.3586557,126.350872 24.6013833,135.228822 C24.8361079,143.814048 32.894711,150.725826 42.9040433,150.926818 L44.243102,150.953708 L34.864549,150.953708 C24.5052856,149.586726 17.3994189,141.275546 18.9931517,132.390168 C20.2302533,125.493079 26.4493882,120.05457 34.4276461,118.839004 L34.864549,118.776906 Z" id="Rectangle" fill="#434343" fill-rule="nonzero"></path>
                            <path d="M79.1076511,118.776906 L87.1464107,118.776906 C76.7958089,118.985099 68.6017578,126.350872 68.8444854,135.228822 C69.0792099,143.814048 77.137813,150.725826 87.1471453,150.926818 L88.4862041,150.953708 L79.1076511,150.953708 C68.7483876,149.586726 61.642521,141.275546 63.2362537,132.390168 C64.4733554,125.493079 70.6924902,120.05457 78.6707481,118.839004 L79.1076511,118.776906 Z" id="Rectangle" fill="#434343" fill-rule="nonzero"></path>
                            <rect id="Rectangle" fill="#087DAE" fill-rule="nonzero" x="24.1326011" y="169.723508" width="41.5617019" height="5.36280025" rx="2.68140012"></rect>
                            <path d="M93.8490043,121.458306 C91.3294278,123.416627 89.7509698,124.953636 89.1136305,126.069335 C86.0598279,131.415189 84.7972756,138.154238 85.3259735,146.286481 C85.3476015,146.619156 87.1178808,147.93497 87.145504,148.272307 C87.2430829,149.46395 87.8158541,150.953708 85.804804,150.953708 L83.1234038,152.964758 C81.4565243,154.331005 80.5627242,156.342055 80.4420037,158.997908 C79.7716537,173.745609 82.4530538,179.108409 82.4530538,185.141559 C82.4530538,188.606299 79.7716537,191.175133 77.7606036,191.175133 L71.7274533,191.175133 L71.0571033,142.239157 L83.1234038,121.458306 L93.8490043,121.458306 Z" id="Path-14" fill="#111111" fill-rule="nonzero" opacity="0.300000012"></path>
                            <path d="M77.3063331,173.646473 L78.6988384,184.333673 C75.6202896,187.349159 72.5373162,189.482076 69.4593051,190.7476 C68.2213603,191.256581 66.9829335,191.496759 65.9130762,191.510409 C64.6240802,191.526855 63.5758985,191.201227 62.9466206,190.683772 C62.5565011,190.362977 62.301063,189.967266 62.1882277,189.51568 C62.0863757,189.108052 62.0985691,188.644397 62.2819176,188.129951 C62.5280799,187.43926 63.1227939,186.605428 64.2380429,185.688358 C67.1151889,183.322481 69.0926173,179.288257 70.255131,173.646473 L70.255131,173.646473 L77.3063331,173.646473 Z" id="Path-12" stroke="#2A2A2A" stroke-width="1.77615947" fill="#FFFFFF" fill-rule="nonzero"></path>
                            <path d="M68.3537425,97.6082516 C79.2626824,96.5170519 95.6684818,98.0819131 117.571249,102.329466 L117.571249,102.329466 L120.510925,110.500472 L77.9729951,118.485293 C78.5270407,129.916516 78.7086997,140.637297 78.5182406,150.647632 C78.3145865,161.351481 77.6680132,169.379872 76.5871201,174.733915 L76.5871201,174.733915 L69.8280076,175.492999 C57.5224121,144.308722 51.3992227,122.332092 51.3992227,109.569223 C51.3992227,106.110383 52.8683735,103.363297 55.8237852,101.336784 C58.6088475,99.4270778 62.7775091,98.1660312 68.3537425,97.6082516 Z" id="Path-11" stroke="#2A2A2A" stroke-width="1.77615947" fill="#828282" fill-rule="nonzero"></path>
                            <path d="M62.4174901,172.160331 L69.3694813,173.933156 L67.7937813,184.775021 C63.9246326,186.950041 60.2940431,188.261564 56.9070197,188.72599 C55.5450277,188.912746 54.2565779,188.836091 53.1970028,188.580212 C51.9162917,188.27093 50.9692351,187.684914 50.4896269,187.018256 C50.1906782,186.602717 50.04611,186.147649 50.0593336,185.673393 C50.0711122,185.250966 50.2094851,184.801865 50.5306034,184.346659 C50.9620055,183.735119 51.7762593,183.072328 53.123012,182.458196 C56.6263595,180.860638 59.7039998,177.402883 62.4174901,172.160331 L62.4174901,172.160331 Z" id="Path-12" stroke="#2A2A2A" stroke-width="1.77615947" fill="#FFFFFF" fill-rule="nonzero"></path>
                            <path d="M86.029311,98.9655921 C93.0134763,98.1069735 101.449181,98.3622042 110.267538,100.358297 C123.359486,103.321745 129.988159,106.052165 130.86635,108.137156 C130.808811,110.687752 129.691221,112.598521 127.49204,114.223418 C125.477026,115.71224 122.518839,116.967713 118.602102,117.960899 C111.129946,119.85565 100.0949,120.827477 85.4941068,120.862039 C82.6033522,139.450929 77.2930377,157.231332 69.5634771,174.203341 L69.5634771,174.203341 L68.068015,173.90352 L62.5697318,172.801185 C63.355666,131.628679 65.7573197,109.345422 68.9769661,105.613734 C71.609101,102.562993 77.809568,99.9761101 86.029311,98.9655921 Z" id="Path-10" stroke="#2A2A2A" stroke-width="1.77615947" fill="#A4A4A4" fill-rule="nonzero"></path>
                            <path d="M130.047906,108.481881 C129.601006,116.142488 114.495785,119.972792 84.7322439,119.972792 C81.9167738,138.519526 76.6880435,156.259879 69.0460532,173.193853 C67.7259427,172.929188 66.8056871,172.744687 66.2852864,172.640354 C73.7385034,144.920557 74.9451335,119.207482 80.3749687,115.578773 C85.804804,111.950064 91.3687092,107.716571 110.071475,111.950064 C122.539986,114.772393 129.198796,113.616332 130.047906,108.481881 Z" id="Path-10" fill="#858585" fill-rule="nonzero"></path>
                            <path d="M130.047906,108.481881 C97.7627813,102.678305 85.1812525,99.6783793 92.3033201,99.4821035 C97.7360786,99.3323831 103.766655,99.7973265 110.071475,101.224464 C122.539986,104.046793 129.198796,106.465932 130.047906,108.481881 Z" id="Path-10" fill="#858585" fill-rule="nonzero"></path>
                            <path d="M108.027008,33.3111347 C121.417692,46.2779218 129.329107,70.9175706 131.604606,107.325558 C131.638173,107.862635 131.670205,108.397323 131.699169,108.928905 C131.232823,108.666327 130.767272,108.411928 130.302513,108.165712 C119.92839,102.669786 105.959634,99.1370623 88.4057275,97.5397804 C88.1357334,97.5152127 87.8664908,97.4912487 87.5987538,97.4633376 C87.5981244,97.1948978 87.5981244,96.92557 87.5981244,96.6553545 C87.5981244,62.5658646 90.938309,42.6088301 97.2868784,36.5424677 L97.2868784,36.5424677 L108.027008,33.3111347 Z" id="Path-15" stroke="#2A2A2A" stroke-width="1.77615947" fill="#FFFFFF" fill-rule="nonzero" stroke-linejoin="round"></path>
                            <path d="M130.718458,107.380955 C130.76381,81.3222777 123.117784,56.9662266 107.780176,34.3128016 L97.7515389,37.3300109 C97.7505823,44.3467319 98.9076882,49.8210458 101.222855,53.7529525 C106.192001,62.1921802 119.246553,65.3333364 119.322306,73.1931034 C119.387057,79.9115063 101.271499,85.2182195 97.8711045,93.3036043 C97.4711375,94.254637 99.2118046,95.6979106 99.2118046,96.6553545 C104.574605,97.3257045 108.120507,85.8942864 113.289155,87.270454 C117.530015,88.3995951 124.639707,91.1563564 127.366506,99.3367546 C128.260306,102.018155 129.377556,104.699555 130.718458,107.380955 Z" id="Path-15" fill="#CFCFCF" fill-rule="nonzero"></path>
                            <path d="M39.0385653,50.3620616 C47.2707554,49.1833927 54.1058932,51.3074529 59.5563515,56.703096 C69.6933186,50.7354582 82.0275079,53.2281056 89.3350744,54.6785345 L89.3350744,54.6785345 L93.1424709,59.4200646 L62.2278685,74.3110309 C61.4767656,73.8219071 61.1606076,73.6008752 60.7008484,73.2747218 C59.9675813,72.7545418 58.8614756,71.9616522 57.3818003,70.8963966 C53.8270061,68.3372104 48.1130264,64.2038405 40.2295738,58.5012409 L40.2295738,58.5012409 L37.0257404,52.3748864 L39.0385653,50.3620616 Z" id="Path-30" stroke="#2A2A2A" stroke-width="1.77615947" fill="#FFFFFF" fill-rule="nonzero" stroke-linejoin="round" transform="translate(65.084106, 62.178718) rotate(-6.000000) translate(-65.084106, -62.178718) "></path>
                            <path d="M37.8131149,50.4005199 C38.4005346,50.2271829 39.0333991,50.3032133 39.563048,50.6107514 L39.563048,50.6107514 L52.1341162,57.9100814 C55.4136452,59.8143239 59.2136565,60.6266306 62.9851077,60.2296356 L62.9851077,60.2296356 L93.7205476,56.9943262 C94.3326271,56.9298969 94.9128754,57.119661 95.3562114,57.4785522 C95.8038537,57.840929 96.1119104,58.3757337 96.1722097,58.9953975 L96.1722097,58.9953975 L98.6771576,95.3044992 C98.7174135,95.8882229 98.5285236,96.4378104 98.1847024,96.8617479 C97.8408825,97.2856856 97.3421341,97.5839733 96.7626741,97.6650976 L96.7626741,97.6650976 L71.5549871,101.194174 C66.783933,101.862121 61.9337059,100.754814 57.9252341,98.0824993 L57.9252341,98.0824993 L48.5878072,91.8575481 C47.8918793,91.3935962 47.3809737,90.6999913 47.1442576,89.8977865 L47.1442576,89.8977865 L36.306243,53.1689592 C36.1320569,52.5786618 36.2136263,51.973645 36.4863165,51.4726561 C36.7590066,50.9716672 37.2228176,50.574706 37.8131149,50.4005199 Z" id="Path-29" stroke="#2A2A2A" stroke-width="1.77615947" fill="#087DAE" fill-rule="nonzero" transform="translate(67.448525, 75.846738) rotate(-6.000000) translate(-67.448525, -75.846738) "></path>
                            <path d="M94.0271515,60.5058217 L96.5206485,95.4147822 C96.5706821,96.1152468 96.0717271,96.7356306 95.3768275,96.8369701 L71.5598508,100.310279 C66.9714606,100.979419 62.2977817,99.9264638 58.439627,97.3543606 L49.1535498,91.1636426 C48.6306499,90.8150425 48.2468054,90.293852 48.0690363,89.6910714 L37.6443887,54.3431288 C37.4349379,53.6329219 37.8408809,52.887392 38.5510878,52.6779411 C38.9082041,52.5726221 39.2930338,52.6205498 39.6134081,52.8102451 L51.6772952,59.9533361 C55.1705231,62.0216948 59.2401909,62.901743 63.2758968,62.4614842 L92.5444628,59.2685498 C93.280544,59.18825 93.9423509,59.7198659 94.0226508,60.4559471 C94.024462,60.4725424 94.0259623,60.4891703 94.0271515,60.5058217 Z" id="Path-29" fill="#12A4E2" fill-rule="nonzero" transform="translate(67.056692, 76.564988) rotate(-6.000000) translate(-67.056692, -76.564988) "></path>
                            <path d="M64.8683801,62.3047656 L70.3539631,100.942731 L70.1445219,100.954976 C67.5492058,101.106715 64.950667,100.717657 62.5135974,99.8124596 L61.5166299,99.4421573 L61.5166299,99.4421573 L54.5449896,60.9640656 C57.3505885,62.2791902 60.4648571,62.7940459 63.5444438,62.4518697 L64.8683801,62.3047656 L64.8683801,62.3047656 Z" id="Path-29" fill="#087DAE" fill-rule="nonzero" transform="translate(62.449476, 80.975521) rotate(-6.000000) translate(-62.449476, -80.975521) "></path>
                            <path d="M91.5446924,92.3951577 C92.1431039,92.4063298 94.3941511,93.264525 95.8959121,94.4031773 C96.8893038,95.1563786 97.4833037,96.0393369 97.4833037,96.8510815 C97.4833037,98.8215415 93.7150283,102.875135 91.7287569,104.213814 C90.6318099,104.953119 88.9856016,105.012764 87.5970755,104.544854 C86.8722212,104.300591 86.2299238,103.919773 85.7764546,103.461339 C85.262893,102.942154 84.9815438,102.324637 84.9815438,101.670206 C84.9815438,100.672686 85.6753733,99.6412494 86.3444318,98.8347715 L86.4341802,98.7277021 L86.3831932,98.674933 C85.5079267,97.7518382 85.4758735,97.1150139 86.186816,95.9677113 L86.3199687,95.7597849 C87.6305548,93.7723823 91.5446924,92.3951577 91.5446924,92.3951577 Z" id="Path-3" stroke="#2A2A2A" stroke-width="1.77615947" fill="#BC9873" fill-rule="nonzero" transform="translate(91.232424, 98.619566) rotate(6.000000) translate(-91.232424, -98.619566) "></path>
                            <path d="M94.7892024,14.654926 C98.9474963,14.6689807 100.788625,14.9434749 103.227814,18.5163249 C104.834777,20.8701571 106.861315,25.961542 109.272634,33.8104878 C104.242629,38.5485528 100.609779,39.7958781 98.0689342,38.9688218 C97.4575468,38.181077 97.0372253,29.4296446 94.2394779,27.2440143 C92.5283578,25.9072696 91.4472309,22.6776888 91.4472309,19.8435115 C91.4472309,18.4356123 91.7127133,17.1468054 92.228522,16.2417298 C92.5122054,15.7439581 92.8716519,15.3515642 93.2954168,15.0814586 C93.7227364,14.8090872 94.2177599,14.654926 94.7892024,14.654926 Z" id="Path-17" stroke="#2A2A2A" stroke-width="1.77615947" fill="#BC9873" fill-rule="nonzero"></path>
                            <path d="M97.8274004,34.0071219 C97.3372002,31.2207043 96.423308,27.8230971 94.7862006,26.5441723 C91.8215252,24.2281362 91.2285898,15.5430007 94.7862006,15.5430007 C98.3438126,15.5430007 100.122619,15.5430007 102.49436,19.0170549 C104.07552,21.3330911 106.05197,26.3511693 108.423712,34.0712898 C101.624515,35.5348941 98.0924112,35.5135047 97.8274004,34.0071219 Z" id="Path-17" fill="#98744E" fill-rule="nonzero"></path>
                            <path d="M106.645378,32.2486051 C108.199395,31.7449019 110.149027,32.5672613 111.03333,33.3287531 C111.190018,33.4636812 111.713646,34.1430411 112.484085,35.2893112 C118.441011,44.286631 135.284619,72.6655175 133.133266,81.2632483 C132.28723,84.6443715 127.747234,87.9048984 121.926012,90.583161 C111.904404,95.193963 98.4389996,98.2137842 96.891345,98.2137842 C95.2712873,98.2137842 94.6039512,97.5275846 93.8278599,96.5422485 C93.28617,95.8700555 92.9158307,95.3477524 92.7833033,94.7251741 C92.6721741,94.2031195 92.7047855,93.6062353 93.0546816,92.906443 C94.4030124,92.033697 96.0745021,90.9865882 98.1770053,89.6731036 C104.537715,85.6994135 114.707903,79.4231447 121.127409,78.4830644 C109.325345,59.1978016 102.087743,40.9743959 104.285846,35.4783864 C104.425085,34.6241411 104.687643,33.9792215 105.014078,33.4951281 C105.458298,32.8363614 106.027865,32.4487595 106.645378,32.2486051 Z" id="Path-16" stroke="#2A2A2A" stroke-width="1.77615947" fill="#4B4B4B" fill-rule="nonzero"></path>
                            <path d="M91.0088823,7.95142066 C94.0437008,7.95142066 97.1699103,9.08477616 99.6616684,12.5080653 C101.869729,15.5415965 103.203889,17.7541505 103.694273,19.1321967 C104.082955,20.2244485 103.957115,20.915261 103.685278,21.3226721 C103.014003,21.7764078 102.770716,21.862998 102.565377,21.9131834 C102.060188,25.2698042 101.043659,28.0199162 99.5389166,30.1733219 C97.881928,32.5446036 95.633464,34.2071999 92.7891398,35.155308 C91.256094,35.6663232 89.8508316,35.423262 88.5841036,34.6930983 C87.2034548,33.8972686 85.9890202,32.4857949 84.9825262,30.8760969 C84.6314183,30.3052192 83.9993744,29.7131014 83.5278156,29.2597993 C82.94508,25.0129884 82.3347067,24.1890038 81.985067,23.7874994 C80.7709445,20.867723 80.1769812,18.6461031 79.8335924,16.8863065 C79.339204,14.3526684 79.5426803,12.7976093 79.8604572,12.4404107 C80.5905121,11.619789 85.6550047,7.95142066 91.0088823,7.95142066 Z" id="Path-18" stroke="#2A2A2A" stroke-width="1.77615947" fill="#BC9873" fill-rule="nonzero" stroke-linejoin="round"></path>
                            <path d="M86.475154,30.9610515 C88.7096541,30.9610515 90.4972542,29.8438013 91.8379542,27.6093013 C92.7317543,30.7376014 91.6145042,32.5252014 88.4862041,32.9721015 C87.592404,32.5252014 86.922054,31.8548514 86.475154,30.9610515 Z" id="Path-32" fill="#FFFFFF" fill-rule="nonzero"></path>
                            <path d="M94.5193544,17.5540508 C94.3723305,17.1264057 93.3887041,17.9697891 93.1786543,17.5540508 C92.2072001,15.6313124 91.4276965,12.6714883 89.8269041,12.1912505 C83.1234038,10.1802005 80.528787,14.3220484 80.4457439,13.5619914 C80.3356539,12.5543862 80.3584746,13.2167216 80.52397,13.0306958 C81.5914065,11.8308386 92.5390361,4.2317433 98.9436552,13.0306958 C105.348276,21.8296483 97.8711045,12.8616006 94.5193544,17.5540508 Z" id="Path-18" fill="#98744E" fill-rule="nonzero"></path>
                            <circle id="Oval" fill="#040404" fill-rule="nonzero" transform="translate(87.815854, 20.637661) rotate(-16.000000) translate(-87.815854, -20.637661) " cx="87.815854" cy="20.6376614" r="1.34070006"></circle>
                            <circle id="Oval" fill="#040404" fill-rule="nonzero" transform="translate(83.793754, 22.246501) rotate(-16.000000) translate(-83.793754, -22.246501) " cx="83.7937538" cy="22.2465015" r="1.34070006"></circle>
                            <path d="M93.2346619,0.240994299 C96.4294833,-0.0561742926 99.8085019,0.45574832 102.705669,2.36177924 C106.887587,5.11304076 110.155135,10.8072612 110.155135,21.576151 C110.155135,27.7809543 110.992531,31.8186544 112.29865,34.5436691 C114.069799,38.2388998 116.708792,39.414988 119.062328,40.451278 C121.114752,41.3582178 122.818177,42.2174956 123.943554,43.7767804 C124.844382,45.0249379 125.400192,46.7259486 125.400192,49.3119676 C125.400192,54.7784396 122.738286,57.8428736 119.692328,61.2528687 C119.329587,61.6589641 118.96207,62.070683 118.594477,62.493528 L118.227031,62.9202855 C114.311045,67.5162711 110.564311,73.5868285 112.686023,87.8097745 C112.85837,88.9651067 113.052052,90.0576874 113.264567,91.0908912 C112.551525,90.2598931 111.834864,89.3949862 111.114623,88.4961254 C105.641313,81.66545 102.036546,75.4641116 100.27764,69.9031668 C98.4681638,64.1823415 98.5969595,59.1197817 100.604856,54.709487 C106.225265,42.3643967 102.613153,27.8823016 99.7997538,23.3880751 C100.992733,20.8497469 101.162419,19.1238389 100.398293,17.2135254 C99.9875336,16.186627 99.3337466,15.6492046 98.6396716,15.4756858 C98.1896294,15.3631753 97.7360679,15.3972503 97.3557904,15.5151906 C97.0487633,15.6104127 96.7542933,15.7406512 96.6541216,15.9406717 L96.6541216,15.9406717 L94.9984911,15.3276098 C95.3556442,13.8989946 95.1302175,12.7173485 94.2265616,11.8136927 C93.2053315,10.7924621 91.4486224,10.1218415 89.0105547,9.71549685 C86.5287116,9.30185632 84.5055,9.37722306 82.9504659,9.99923674 C81.509194,10.5757455 80.5083155,11.6388211 79.9328387,13.1734262 L79.9328387,13.1734262 L78.2221495,12.7360071 C78.6994218,9.3951011 80.3588889,6.52376689 83.2248694,4.13515625 C85.2006219,2.41484262 89.0471079,0.630502607 93.2346619,0.240994299 Z" id="Path-28" stroke="#2A2A2A" stroke-width="1.77615947" fill="#434343" fill-rule="nonzero" stroke-linejoin="round"></path>
                            <path d="M85.1344539,5.48775024 C87.145504,2.13600008 109.267055,-4.94513968 109.267055,21.576151 C109.267055,48.0974416 116.640905,38.3349018 116.640905,49.0605023 C116.640905,59.7861028 107.765337,60.8429636 111.807662,87.9408041 C101.028129,74.4879754 97.5632784,63.5335293 101.413112,55.0774656 C103.056956,51.466802 105.683155,46.6359519 105.915305,41.6866519 C106.188135,35.870101 103.904255,29.7338059 103.904255,22.9168511 C103.904255,12.1912505 100.614696,8.87059573 96.5304045,6.8284503 C91.1676042,4.8174002 87.8158541,5.48775024 85.1344539,5.48775024 Z" id="Path-28" fill="#343434" fill-rule="nonzero"></path>
                            <ellipse id="Oval" stroke="#2A2A2A" stroke-width="1.34070006" transform="translate(86.845574, 21.373846) rotate(-22.000000) translate(-86.845574, -21.373846) " cx="86.8455743" cy="21.3738459" rx="2.01105009" ry="4.02210019"></ellipse>
                            <ellipse id="Oval" stroke="#2A2A2A" stroke-width="1.34070006" transform="translate(81.112354, 23.587201) rotate(-25.000000) translate(-81.112354, -23.587201) " cx="81.1123535" cy="23.5872012" rx="1.34070006" ry="3.35175015"></ellipse>
                            <path d="M82.4530538,22.9168511 C82.4530538,22.023051 83.3468539,21.576151 85.1344539,21.576151" id="Path-4" stroke="#2A2A2A" stroke-width="1.34070006" stroke-linecap="round" stroke-linejoin="round"></path>
                            <line x1="87.8158541" y1="18.8947509" x2="96.5304045" y2="15.5430007" id="Path-5" stroke="#2A2A2A" stroke-width="1.34070006" stroke-linecap="round" stroke-linejoin="round"></line>
                        </g>
                    </g>
                </g>
            </g>
        </g>
    </g>
</svg>